<svg xmlns="http://www.w3.org/2000/svg" width="221.71" height="31.764" viewBox="0 0 221.71 31.764">
  <g id="Group_175" data-name="Group 175" transform="translate(-383.198 -583.322)">
    <g id="Group_172" data-name="Group 172" transform="translate(450.964 584.096)">
      <path id="Path_2314" data-name="Path 2314" d="M1201.719,624.69" transform="translate(-1060.791 -614.916)" fill="#fff"/>
      <path id="Path_2315" data-name="Path 2315" d="M670.2,612.335c0,4.966-4.14,7.091-8.587,7.091H650.875a1.875,1.875,0,0,1-1.894-1.857V592.808H661.4c5.531,0,8.146,2.578,8.146,6.408,0,3.183-1.78,6.18-6.537,6.37C668.192,605.85,670.2,608.808,670.2,612.335Zm-7.094-11.68c0-1.516-.936-2.837-3.218-2.837l-4.838,0v5.6l4.838,0C662.059,603.423,663.11,602.135,663.11,600.655Zm.425,10.5c0-1.86-1.128-3.186-3.412-3.186h-5.07v6.441h5.07A3.158,3.158,0,0,0,663.535,611.16Z" transform="translate(-648.981 -591.163)" fill="#fff"/>
      <path id="Path_2316" data-name="Path 2316" d="M762.825,637.557a6.729,6.729,0,0,1-5.107,1.97c-3.326,0-6.652-1.783-6.652-6.331,0-4.779,3.6-6.636,7.233-6.636a16.364,16.364,0,0,1,4.526.644V626.6c0-1.821-1.452-2.717-3.577-2.814-2.864-.131-5.406.562-6.644,1.659l-.081-1.294a4.551,4.551,0,0,1,2.6-4.07,13.869,13.869,0,0,1,5.3-.951c5.764,0,8.474,2.958,8.474,7.85v12.057h-5.046C762.7,639.035,762.825,637.557,762.825,637.557Zm0-6.447a8.371,8.371,0,0,0-2.708-.492c-1.853,0-3.028.764-3.028,2.318s1.481,2.156,2.719,2.156a3.445,3.445,0,0,0,3.017-1.67Z" transform="translate(-725.038 -610.772)" fill="#fff"/>
      <path id="Path_2317" data-name="Path 2317" d="M850.5,635.793h6.146a1.856,1.856,0,0,1,1.874,1.837V640.8h-17v-.911l8.13-13.38h-5.813a1.856,1.856,0,0,1-1.874-1.837L841.9,621.5h16.585v.988Z" transform="translate(-792.429 -612.541)" fill="#fff"/>
      <path id="Path_2318" data-name="Path 2318" d="M925.509,629.44c0-6.257,4.216-10.312,10.173-10.312,6.033,0,9.561,5.6,8.8,12.193H932.046c-.026,6.08,10.938,2.32,10.938,2.32.176,1.068.009,3.919-1.583,4.979-3.568,2.377-11,1.312-13.048-1.038A11.429,11.429,0,0,1,925.509,629.44Zm9.856-5.7c-1.471,0-2.74,1.35-3.088,3.32H938.5A3.139,3.139,0,0,0,935.365,623.745Z" transform="translate(-855.004 -610.772)" fill="#fff"/>
      <path id="Path_2319" data-name="Path 2319" d="M1030.3,615.383a4.587,4.587,0,0,1-4.653,4.651c-4.913,0-7.35-2.05-7.35-7.927v-7.43h-2.553v-4.552h2.553v-4.136a1.842,1.842,0,0,1,1.326-1.757l4.747-1.424v7.316h5.957v4.552h-5.957v6.976c0,2.617.85,3.3,2.63,3.3a6.441,6.441,0,0,0,3.3-.961Z" transform="translate(-922.235 -591.163)" fill="#fff"/>
      <path id="Path_2320" data-name="Path 2320" d="M1104.189,615.383a4.587,4.587,0,0,1-4.653,4.651c-4.913,0-7.349-2.05-7.349-7.927v-7.43h-2.553v-4.552h2.553v-4.136a1.842,1.842,0,0,1,1.325-1.757l4.747-1.424v7.316h5.957l0,4.552h-5.953l-.008,6.976c0,2.617.85,3.3,2.63,3.3a6.441,6.441,0,0,0,3.3-.961Z" transform="translate(-977.282 -591.163)" fill="#fff"/>
      <path id="Path_2321" data-name="Path 2321" d="M1174.119,623.337V640.8h-4.2a1.856,1.856,0,0,1-1.874-1.837V621.5h4.238A1.823,1.823,0,0,1,1174.119,623.337Z" transform="translate(-1035.701 -612.541)" fill="#fff"/>
      <ellipse id="Ellipse_3" data-name="Ellipse 3" cx="3.098" cy="3.252" rx="3.098" ry="3.252" transform="translate(132.258 0)" fill="#fff"/>
    </g>
    <g id="Group_173" data-name="Group 173" transform="translate(383.198 583.322)">
      <path id="Path_2322" data-name="Path 2322" d="M439.5,593.163l-10.818-.009c.386-3.473.544-9.832.544-9.832h-45.99l-.008,1.886c-.024.611-.787,18.079,7.384,25.408,9.187,8.239,16.7,3.117,17.462-1.852.9-5.91-3.623-7.981-5.216-7.981,0,0-.719-2.27,3.414-2.27.384,0,16.146-.087,16.146-.087-1.419,7.69-7.42,10.046-9.7,11.023a13.813,13.813,0,0,1-3.607,5.638c9.931-.579,13.783-6.256,14.173-6.743h.968c5.053,0,8.74-.593,11.339-3.181C439.869,600.9,439.5,593.163,439.5,593.163Zm-16.14,0s-15.3.029-16.31.029c-12.1,0-9.825,11.753-9.825,11.753s3.432-.576,4.8.587c1.728,1.468,1.093,3.49-.254,3.828-4.209,1.058-6.872-1.449-8.943-4.407-3.571-5.1-4.151-12.342-4.289-16.429h35.182C423.7,589.585,423.566,591.191,423.359,593.159Zm3,10a19.39,19.39,0,0,0,1.505-4.745h5.39C432.969,601.362,430.645,603.161,426.356,603.155Z" transform="translate(-383.198 -583.322)" fill="#fff"/>
    </g>
    <g id="Group_174" data-name="Group 174" transform="translate(594.136 583.779)">
      <path id="Path_2323" data-name="Path 2323" d="M1215.907,585.114a5.386,5.386,0,1,0,5.386,5.386,5.393,5.393,0,0,0-5.386-5.386Zm0,9.29a3.9,3.9,0,1,1,3.9-3.9,3.908,3.908,0,0,1-3.9,3.9Zm1.957-4.6a1.75,1.75,0,0,0-1.992-1.763h-1.82v4.927h1.043v-1.373h.777c.046,0,.094,0,.144,0l1,1.376h1.293l-1.224-1.677a1.677,1.677,0,0,0,.775-1.487Zm-1.992.748h-.776v-1.467h.777c.948,0,.948.541.948.719s0,.748-.949.748Zm0,0" transform="translate(-1210.521 -585.114)" fill="#fff"/>
    </g>
  </g>
</svg>
