<svg xmlns="http://www.w3.org/2000/svg" width="314" height="395.251" viewBox="0 0 314 395.251">
  <g id="Group_236" data-name="Group 236" transform="translate(-112 -1631)">
    <g id="Group_210" data-name="Group 210" transform="translate(944.168 679.313)">
      <path id="Path_2324" data-name="Path 2324" d="M-706.969,1215.479c-19.537-28.629-54.048-37.731-66.011-63.121-13.784-29.257,7.635-32.11,11.506-34.765,1.681,36.486,54.5,97.885,54.5,97.885" transform="translate(14.429 27.868)" fill="#fff"/>
      <path id="Path_2325" data-name="Path 2325" d="M-715.286,1243.832a2.768,2.768,0,0,1-1.472-.422,2.785,2.785,0,0,1-.891-3.839c8.505-13.651-6.216-41.376-12.606-50.906a2.788,2.788,0,0,1,.764-3.868,2.787,2.787,0,0,1,3.869.761c1.02,1.522,24.842,37.486,12.705,56.962A2.785,2.785,0,0,1-715.286,1243.832Z" transform="translate(32.879 54.161)" fill="#fff"/>
      <path id="Path_2326" data-name="Path 2326" d="M-702.148,1235.055a2.788,2.788,0,0,1-2.731-2.24c-1.241-6.2-1.748-17.926,8.784-26.726a2.787,2.787,0,0,1,3.927.353,2.788,2.788,0,0,1-.351,3.927c-7.9,6.6-8.11,15.256-6.891,21.353A2.79,2.79,0,0,1-701.6,1235,2.852,2.852,0,0,1-702.148,1235.055Z" transform="translate(42.811 62.483)" fill="#fff"/>
      <path id="Path_2327" data-name="Path 2327" d="M-757.435,1246.068a38.383,38.383,0,0,1-5.4-.34,44.3,44.3,0,0,1-5.2-.984,34.591,34.591,0,0,1-9.843-4.083,24.831,24.831,0,0,1-7.759-7.464,25.881,25.881,0,0,1-3.806-9.914,1.569,1.569,0,0,1,1.271-1.822,1.57,1.57,0,0,1,1.8,1.171l.011.042a22.422,22.422,0,0,0,3.8,8.374,20.754,20.754,0,0,0,6.884,5.851,30,30,0,0,0,8.722,3,39.056,39.056,0,0,0,4.644.588,33.946,33.946,0,0,0,4.559.02l.074-.006a2.791,2.791,0,0,1,3,2.569,2.791,2.791,0,0,1-2.569,2.994c-.056.005-.12.008-.176.008" transform="translate(9.73 68.786)" fill="#fff"/>
      <path id="Path_2328" data-name="Path 2328" d="M-803.371,1220.435c7.178,3.407,15.274,11.7,17.9,14.513a9.687,9.687,0,0,0-.005-9.591s-4.932-8.514-12.857-10.294l-1.216,2.728a13.473,13.473,0,0,0-14.6-4.252,13.474,13.474,0,0,0,7.643,13.142l-2.357,1.837c3.637,7.263,12.769,9.9,12.769,9.9a10.013,10.013,0,0,0,9.3-1.828Z" transform="translate(0 65.415)" fill="#fff"/>
      <path id="Path_2329" data-name="Path 2329" d="M-750.472,1186.832c-22.505,2.187-22.518,24.1-22.518,24.1a11.863,11.863,0,0,0,2.267,7.825l13.8-20.042c-2.335,8.318-9.808,18.535-12.2,21.673a6.572,6.572,0,0,0,1.15.705c3.137,1.487,6.708.2,10.747-3.5,0,0,15.613-15.549,6.757-30.757" transform="translate(16.223 55.151)" fill="#fff"/>
      <path id="Path_2330" data-name="Path 2330" d="M-799.743,1270.045c16.9,1.742,20.172-19.45,20.172-19.45a9.7,9.7,0,0,0-.5-6.1l-13.149,17.761c2.96-5.777,9.984-17.248,12.216-19.2a4.864,4.864,0,0,0-.742-.691c-2.088-1.562-7.1-.022-10.528,3.389,0,0-11.721,11.773-7.466,24.29" transform="translate(5.317 76.792)" fill="#fff"/>
      <path id="Path_2331" data-name="Path 2331" d="M-596.564,1265.16a57.422,57.422,0,0,1-16.468-2.573,74.576,74.576,0,0,1-17.7-7.917c-.453-.315-9.567-6.753-41.185-31.33a2.789,2.789,0,0,1-.489-3.913,2.791,2.791,0,0,1,3.912-.491c31.454,24.452,40.8,31.055,40.891,31.119.177.111,24.545,15.683,45.125,6.767l-38-45.468a2.787,2.787,0,0,1,.351-3.926,2.788,2.788,0,0,1,3.928.351l42.4,50.733-2.9,1.65A39.764,39.764,0,0,1-596.564,1265.16Z" transform="translate(55.629 63.01)" fill="#fff"/>
      <path id="Path_2332" data-name="Path 2332" d="M-753.957,1074.986a98.125,98.125,0,0,1,19.289-2.66,90.634,90.634,0,0,1,18.96,2c1.591-.028,2.848-1.869,2.808-4.115l-.067-21.375-13.195,5.109-8.724-7.073-7.97,7.183-14.523-4.422.467,21.343c.041,2.244,1.362,4.042,2.954,4.012" transform="translate(22.377 0)" fill="#fff"/>
      <path id="Path_2333" data-name="Path 2333" d="M-725.122,1075.957c-.13,2.555-3.433,4.465-7.38,4.266s-7.041-2.434-6.912-4.989,3.433-4.465,7.38-4.265,7.041,2.433,6.912,4.988" transform="translate(29.454 9.49)" fill="#fff"/>
      <path id="Path_2334" data-name="Path 2334" d="M-720.57,1253.776c-6.827-.093-13.929-.843-20.533-3.4a53.043,53.043,0,0,1-17.625-11.12,92.279,92.279,0,0,1-13.1-15.732,168.969,168.969,0,0,1-10.22-17.48,2.061,2.061,0,0,1,.854-2.785,2.06,2.06,0,0,1,2.766.82l.036.065a164.846,164.846,0,0,0,10.252,16.829,87.651,87.651,0,0,0,12.686,14.7,48,48,0,0,0,16.133,9.8c5.909,2.17,12.293,2.748,18.753,2.724h.029a2.789,2.789,0,0,1,2.8,2.778,2.788,2.788,0,0,1-2.778,2.8Z" transform="translate(12.561 61.528)" fill="#fff"/>
      <path id="Path_2335" data-name="Path 2335" d="M-621.88,1242.652h-.039l-181.125-2.473a2.79,2.79,0,0,1-2.75-2.826,2.755,2.755,0,0,1,2.826-2.75l181.126,2.473a2.789,2.789,0,0,1,2.749,2.827A2.787,2.787,0,0,1-621.88,1242.652Z" transform="translate(3.3 73.973)" fill="#fff"/>
      <path id="Path_2336" data-name="Path 2336" d="M-669.047,1244.151a2.785,2.785,0,0,1-2.3-1.214c-.144-.209-10.682-15.17-29.5-15.17-18.971,0-29.257,14.432-29.358,14.58a2.788,2.788,0,0,1-3.882.691,2.789,2.789,0,0,1-.691-3.883c.482-.691,12.084-16.965,33.932-16.965,21.871,0,33.619,16.883,34.108,17.6a2.788,2.788,0,0,1-.735,3.874A2.776,2.776,0,0,1-669.047,1244.151Z" transform="translate(31.082 69.083)" fill="#fff"/>
      <path id="Path_2337" data-name="Path 2337" d="M-673.4,1238.013h-.036l-56.913-.673a3.081,3.081,0,0,1-3.044-3.116,3.081,3.081,0,0,1,3.079-3.043h.036l56.913.673a3.08,3.08,0,0,1,3.045,3.116A3.081,3.081,0,0,1-673.4,1238.013Z" transform="translate(31.828 72.626)" fill="#fff"/>
      <path id="Path_2338" data-name="Path 2338" d="M-692.307,1238.973c-1.167-5.83-1.511-16.229,7.837-24.039,0,0-25.777-2.854-43.564-29.438,0,0,23.977,35.763,12.656,53.933" transform="translate(33.94 54.624)" fill="#fff"/>
      <path id="Path_2339" data-name="Path 2339" d="M-751.845,1240.894c.059-.014-.132-.015-.233-.008a3.618,3.618,0,0,0-.386.032,7.016,7.016,0,0,0-.828.137,9.391,9.391,0,0,0-1.685.545,12.323,12.323,0,0,0-3.149,1.974,16.373,16.373,0,0,0-2.612,2.954c-.4.546-.715,1.157-1.085,1.737l-.929,1.871-.064.128a1.492,1.492,0,0,1-2,.672,1.492,1.492,0,0,1-.754-1.8l.73-2.24c.318-.729.587-1.48.958-2.2a20.4,20.4,0,0,1,2.695-4.122,16.965,16.965,0,0,1,3.907-3.334,14.488,14.488,0,0,1,2.388-1.191,12.8,12.8,0,0,1,1.313-.432c.226-.063.456-.123.7-.17a6.241,6.241,0,0,1,.868-.128,2.788,2.788,0,0,1,2.868,2.7,2.788,2.788,0,0,1-2.706,2.869" transform="translate(19.12 74.256)" fill="#fff"/>
      <path id="Path_2340" data-name="Path 2340" d="M-763.122,1229.691a7.734,7.734,0,0,0-1.068-.666,11.791,11.791,0,0,0-1.284-.581,9.448,9.448,0,0,0-2.7-.587,7.544,7.544,0,0,0-2.7.266,9.757,9.757,0,0,0-2.576,1.139l-.184.1a2.1,2.1,0,0,1-2.858-.783,2.107,2.107,0,0,1,.615-2.753,14.228,14.228,0,0,1,3.629-1.966,12.153,12.153,0,0,1,4.154-.754,14.348,14.348,0,0,1,4.149.553,16.866,16.866,0,0,1,1.953.7,12.459,12.459,0,0,1,1.966,1.039,2.65,2.65,0,0,1,.8,3.662,2.65,2.65,0,0,1-3.662.8c-.074-.049-.146-.1-.215-.153Z" transform="translate(14.74 69.445)" fill="#fff"/>
      <path id="Path_2341" data-name="Path 2341" d="M-695.884,1224.1s-14.651-2.192-23.07.456" transform="translate(37.518 69.499)" fill="#fff"/>
      <path id="Path_2342" data-name="Path 2342" d="M-692.045,1127.747s21.762,13.175,35.512,43.155c0,0-16.975-13.312-35.512-43.155" transform="translate(48.121 31.869)" fill="#fff"/>
      <path id="Path_2343" data-name="Path 2343" d="M-705.714,1130.014s19.523,10.316,31.044,38.763c0,0-17.957-11-31.044-38.763" transform="translate(42.735 32.762)" fill="#fff"/>
      <path id="Path_2344" data-name="Path 2344" d="M-689.883,1170.066s-19.963-8.219-28.745-34.483c0,0,15.475,8.493,28.745,34.483" transform="translate(37.646 34.956)" fill="#fff"/>
      <path id="Path_2345" data-name="Path 2345" d="M-637.316,1206.808a2.783,2.783,0,0,1-2.165-1.027l-21.373-26.269a2.789,2.789,0,0,1,.4-3.923,2.788,2.788,0,0,1,3.923.4l21.373,26.268a2.79,2.79,0,0,1-.4,3.924A2.776,2.776,0,0,1-637.316,1206.808Z" transform="translate(60.165 50.474)" fill="#fff"/>
      <path id="Path_2346" data-name="Path 2346" d="M-655.6,1208.769a2.783,2.783,0,0,1-2.164-1.027l-21.468-26.384a2.789,2.789,0,0,1,.4-3.924,2.791,2.791,0,0,1,3.921.4l21.468,26.384a2.79,2.79,0,0,1-.4,3.924A2.78,2.78,0,0,1-655.6,1208.769Z" transform="translate(52.925 51.201)" fill="#fff"/>
      <path id="Path_2347" data-name="Path 2347" d="M-660.558,1185.845c-26,0-45.015-6.4-56.6-19.087a2.788,2.788,0,0,1,.177-3.938,2.788,2.788,0,0,1,3.94.177c28.226,30.889,101.32,10.882,102.055,10.677a2.785,2.785,0,0,1,3.436,1.934,2.786,2.786,0,0,1-1.934,3.435,213.881,213.881,0,0,1-41.9,6.553Q-656.1,1185.844-660.558,1185.845Z" transform="translate(37.937 45.401)" fill="#fff"/>
      <path id="Path_2348" data-name="Path 2348" d="M-719.423,1120.541s2.993,11.66,11.964,17.605c0,0,2.112-5.135-11.964-17.605" transform="translate(37.333 29.029)" fill="#fff"/>
      <path id="Path_2349" data-name="Path 2349" d="M-705.912,1115.431s2.993,11.658,11.965,17.6c0,0,2.112-5.134-11.965-17.6" transform="translate(42.657 27.016)" fill="#fff"/>
      <path id="Path_2350" data-name="Path 2350" d="M-600.815,1190.551s-62.18,10.794-89.1-2.61c0,0,20.954,26.031,66.609,27.182s37.208-6.085,37.208-6.085Z" transform="translate(48.962 55.588)" fill="#fff"/>
      <path id="Path_2351" data-name="Path 2351" d="M-670.236,1184.8a30.425,30.425,0,0,0,30.461,9.711l-15.64,17.29Z" transform="translate(56.715 54.35)" fill="#fff"/>
      <path id="Path_2352" data-name="Path 2352" d="M-651.136,1184.1s11.987,14.477,31.4,8.218l-15.638,17.29Z" transform="translate(64.241 54.075)" fill="#fff"/>
      <path id="Path_2353" data-name="Path 2353" d="M-690.44,1186.323c3.747,1.742,12.1,8.739,29.614,8.6l-17.516.141Z" transform="translate(48.754 54.95)" fill="#fff"/>
      <path id="Path_2354" data-name="Path 2354" d="M-562.732,1322.545a2.78,2.78,0,0,1-2.051-.9l-31.19-33.817c-81.162-9.789-138.941-51.315-162.747-117.009-13.221-36.478-14.76-71.23-4.019-90.692,5.23-9.475,13.089-15.414,23.354-17.65,18.053-3.934,33.985,2.253,36.681,3.386,9.263,1.373,16.1,4.958,20.324,10.663a23.648,23.648,0,0,1,4.312,16.494l-.757,4.8-3.761-3.071c-1.189-.956-4.946-3.329-7.928-2.7a10.5,10.5,0,0,0-5.267,3.475,15.832,15.832,0,0,0-1.489,11.95c1.266,4.694,4.613,8.471,9.946,11.23a2.787,2.787,0,0,1,1.195,3.757,2.784,2.784,0,0,1-3.755,1.194c-8.446-4.366-11.607-10.42-12.769-14.729a21.415,21.415,0,0,1,2.166-16.394,15.715,15.715,0,0,1,8.835-5.943,13.355,13.355,0,0,1,7.95,1.067,17.389,17.389,0,0,0-3.208-7.875c-3.362-4.5-9.065-7.341-16.947-8.451l-.392-.055-.361-.162c-.156-.07-16.043-7.015-33.588-3.189a28.709,28.709,0,0,0-19.66,14.9c-9.987,18.1-8.31,51.087,4.379,86.1,23.151,63.883,79.683,104.189,159.18,113.493l1.026.12,32.589,35.331a2.787,2.787,0,0,1-.159,3.939A2.768,2.768,0,0,1-562.732,1322.545Z" transform="translate(17.468 5.642)" fill="#fff"/>
      <path id="Path_2355" data-name="Path 2355" d="M-597.71,1254.009c-15.431,0-34.96-3.417-55.6-15.575-47.827-28.172-81.946-70.971-81.129-101.768.351-13.293,7.107-23.735,19.535-30.193,14.044-7.3,35.655-9.386,58.859,22.107,28.289,38.393,81.5,103,90.78,113.928l.191-.08,1.3,1.745a2.839,2.839,0,0,1,.454,2.964l-.641,1.482-1.6.184c-.164.017-.314.035-.457.036A94.145,94.145,0,0,1-597.71,1254.009ZM-712.333,1111.42c-10.671,5.546-16.234,14.09-16.533,25.4-.767,28.891,32.2,69.608,78.385,96.813,35.9,21.149,68.806,14.18,79.648,10.917-1.667-1.953-4-4.774-7.365-8.841-4.273-5.165-13.129-15.916-24.432-29.872-17.276-21.329-41.346-51.472-57.906-73.945-16.754-22.738-34.182-29.625-51.8-20.467Zm-1.287-2.474h0Z" transform="translate(31.41 21.699)" fill="#fff"/>
      <path id="Path_2356" data-name="Path 2356" d="M-692.045,1159.028l1.366,10.7s6.884,1.037,10.886.036Z" transform="translate(48.121 44.195)" fill="#fff"/>
      <path id="Path_2357" data-name="Path 2357" d="M-675.166,1159.028l1.265,9.9s7.539.488,10.143-.84Z" transform="translate(54.772 44.195)" fill="#fff"/>
    </g>
    <g id="Group_213" data-name="Group 213" transform="translate(186.154 -83.203)">
      <rect id="Rectangle_95" data-name="Rectangle 95" width="262" height="16.075" transform="translate(-74.154 1714.203)" fill="#fff"/>
      <rect id="Rectangle_96" data-name="Rectangle 96" width="254.615" height="10.721" transform="translate(-68.588 1716.745)" fill="#c0071f"/>
      <rect id="Rectangle_97" data-name="Rectangle 97" width="82.754" height="10.721" transform="translate(-72.256 1716.745)" fill="#227b29"/>
      <rect id="Rectangle_98" data-name="Rectangle 98" width="82.754" height="10.721" transform="translate(10.498 1716.745)" fill="#fff"/>
    </g>
  </g>
</svg>
