<svg id="Component_1_1" data-name="Component 1 – 1" xmlns="http://www.w3.org/2000/svg" width="56.308" height="31.764" viewBox="0 0 56.308 31.764">
  <path id="Path_2322" data-name="Path 2322" d="M439.5,593.163l-10.818-.009c.386-3.473.544-9.832.544-9.832h-45.99l-.008,1.886c-.024.611-.787,18.079,7.384,25.408,9.187,8.239,16.7,3.117,17.462-1.852.9-5.91-3.623-7.981-5.216-7.981,0,0-.719-2.27,3.414-2.27.384,0,16.146-.087,16.146-.087-1.419,7.69-7.42,10.046-9.7,11.023a13.813,13.813,0,0,1-3.607,5.638c9.931-.579,13.783-6.256,14.173-6.743h.968c5.053,0,8.74-.593,11.339-3.181C439.869,600.9,439.5,593.163,439.5,593.163Zm-16.14,0s-15.3.029-16.31.029c-12.1,0-9.825,11.753-9.825,11.753s3.432-.576,4.8.587c1.728,1.468,1.093,3.49-.254,3.828-4.209,1.058-6.872-1.449-8.943-4.407-3.571-5.1-4.151-12.342-4.289-16.429h35.182C423.7,589.585,423.566,591.191,423.359,593.159Zm3,10a19.39,19.39,0,0,0,1.505-4.745h5.39C432.969,601.362,430.645,603.161,426.356,603.155Z" transform="translate(-383.198 -583.322)" fill="#fff"/>
</svg>
